<svg width="24" height="24" viewBox="0 0 24 24" fill="none" xmlns="http://www.w3.org/2000/svg">
<path fill-rule="evenodd" clip-rule="evenodd" d="M11.2222 5.77778C8.21528 5.77778 5.77772 8.21534 5.77772 11.2222C5.77772 14.2291 8.21528 16.6667 11.2222 16.6667C14.2291 16.6667 16.6666 14.2291 16.6666 11.2222C16.6666 8.21534 14.2291 5.77778 11.2222 5.77778ZM4.22217 11.2222C4.22217 7.35623 7.35617 4.22222 11.2222 4.22222C15.0882 4.22222 18.2222 7.35623 18.2222 11.2222C18.2222 15.0882 15.0882 18.2222 11.2222 18.2222C7.35617 18.2222 4.22217 15.0882 4.22217 11.2222Z" fill="white"/>
<path fill-rule="evenodd" clip-rule="evenodd" d="M16.5834 16.5834C16.8871 16.2796 17.3796 16.2796 17.6833 16.5834L19.55 18.45C19.8538 18.7538 19.8538 19.2462 19.55 19.55C19.2463 19.8537 18.7538 19.8537 18.4501 19.55L16.5834 17.6833C16.2797 17.3796 16.2797 16.8871 16.5834 16.5834Z" fill="white"/>
</svg>
