<svg width="52" height="52" viewBox="0 0 52 52" fill="none" xmlns="http://www.w3.org/2000/svg">
<g filter="url(#filter0_d_1_340)">
<path d="M23.1348 30.7733V27.7156C23.1348 26.9351 23.7722 26.3023 24.5584 26.3023H27.4326C27.8102 26.3023 28.1723 26.4512 28.4393 26.7163C28.7063 26.9813 28.8563 27.3408 28.8563 27.7156V30.7733C28.8539 31.0978 28.9821 31.4099 29.2124 31.6402C29.4427 31.8705 29.7561 32 30.0829 32H32.0438C32.9596 32.0023 33.8388 31.6428 34.4872 31.0008C35.1356 30.3588 35.5 29.487 35.5 28.5778V19.8669C35.5 19.1325 35.1721 18.4358 34.6046 17.9647L27.934 12.6759C26.7737 11.7486 25.1111 11.7785 23.9854 12.747L17.467 17.9647C16.8727 18.422 16.5176 19.1206 16.5 19.8669V28.5689C16.5 30.4639 18.0474 32 19.9562 32H21.8723C22.5512 32 23.103 31.4562 23.1079 30.7822L23.1348 30.7733Z" fill="#101411"/>
</g>
<defs>
<filter id="filter0_d_1_340" x="-2" y="-2" width="56" height="56" filterUnits="userSpaceOnUse" color-interpolation-filters="sRGB">
<feFlood flood-opacity="0" result="BackgroundImageFix"/>
<feColorMatrix in="SourceAlpha" type="matrix" values="0 0 0 0 0 0 0 0 0 0 0 0 0 0 0 0 0 0 127 0" result="hardAlpha"/>
<feOffset dy="4"/>
<feGaussianBlur stdDeviation="8"/>
<feComposite in2="hardAlpha" operator="out"/>
<feColorMatrix type="matrix" values="0 0 0 0 0 0 0 0 0 0 0 0 0 0 0 0 0 0 0.25 0"/>
<feBlend mode="normal" in2="BackgroundImageFix" result="effect1_dropShadow_1_340"/>
<feBlend mode="normal" in="SourceGraphic" in2="effect1_dropShadow_1_340" result="shape"/>
</filter>
</defs>
</svg>
