<svg width="66" height="66" viewBox="0 0 66 66" fill="none" xmlns="http://www.w3.org/2000/svg">
<path d="M49.5028 55H55V60.5H33C17.8118 60.5 5.5 48.1882 5.5 33C5.5 17.8118 17.8118 5.5 33 5.5C48.1883 5.5 60.5 17.8118 60.5 33C60.5035 37.2696 59.5114 41.4811 57.6023 45.3002C55.6933 49.1192 52.92 52.4404 49.5028 55ZM33 27.5C34.4587 27.5 35.8576 26.9205 36.8891 25.8891C37.9205 24.8576 38.5 23.4587 38.5 22C38.5 20.5413 37.9205 19.1424 36.8891 18.1109C35.8576 17.0795 34.4587 16.5 33 16.5C31.5413 16.5 30.1424 17.0795 29.1109 18.1109C28.0795 19.1424 27.5 20.5413 27.5 22C27.5 23.4587 28.0795 24.8576 29.1109 25.8891C30.1424 26.9205 31.5413 27.5 33 27.5ZM22 38.5C23.4587 38.5 24.8576 37.9205 25.8891 36.8891C26.9205 35.8576 27.5 34.4587 27.5 33C27.5 31.5413 26.9205 30.1424 25.8891 29.1109C24.8576 28.0795 23.4587 27.5 22 27.5C20.5413 27.5 19.1424 28.0795 18.1109 29.1109C17.0795 30.1424 16.5 31.5413 16.5 33C16.5 34.4587 17.0795 35.8576 18.1109 36.8891C19.1424 37.9205 20.5413 38.5 22 38.5ZM44 38.5C45.4587 38.5 46.8576 37.9205 47.8891 36.8891C48.9205 35.8576 49.5 34.4587 49.5 33C49.5 31.5413 48.9205 30.1424 47.8891 29.1109C46.8576 28.0795 45.4587 27.5 44 27.5C42.5413 27.5 41.1424 28.0795 40.1109 29.1109C39.0795 30.1424 38.5 31.5413 38.5 33C38.5 34.4587 39.0795 35.8576 40.1109 36.8891C41.1424 37.9205 42.5413 38.5 44 38.5ZM33 49.5C34.4587 49.5 35.8576 48.9205 36.8891 47.8891C37.9205 46.8576 38.5 45.4587 38.5 44C38.5 42.5413 37.9205 41.1424 36.8891 40.1109C35.8576 39.0795 34.4587 38.5 33 38.5C31.5413 38.5 30.1424 39.0795 29.1109 40.1109C28.0795 41.1424 27.5 42.5413 27.5 44C27.5 45.4587 28.0795 46.8576 29.1109 47.8891C30.1424 48.9205 31.5413 49.5 33 49.5Z" fill="#02FE84"/>
<path d="M34 60.5C40.5 60 46 57.5 49.5 55H55V60.5H34Z" fill="#01D971"/>
<rect x="32" y="2" width="25" height="25" rx="6" fill="white"/>
<path d="M50.5 13.634C51.1667 14.0189 51.1667 14.9811 50.5 15.366L40.75 20.9952C40.0833 21.3801 39.25 20.899 39.25 20.1292L39.25 8.87083C39.25 8.10103 40.0833 7.61991 40.75 8.00481L50.5 13.634Z" fill="#02FE84"/>
</svg>
