<svg width="61" height="63" viewBox="0 0 61 63" fill="none" xmlns="http://www.w3.org/2000/svg">
<rect x="6.5" y="2" width="40" height="57" rx="3" fill="#01D971"/>
<rect x="3.5" y="2" width="40" height="57" rx="3" fill="#02FE84"/>
<rect x="14.5" y="44" width="16" height="5" rx="2" fill="white"/>
<path d="M49.954 15.575C51.3579 14.1702 53.6489 14.2162 54.9952 15.6762C56.3416 17.1363 56.2022 19.4235 54.6885 20.7092L34.4885 37.8664C33.5019 38.7044 32.0298 38.6146 31.1523 37.663C30.2748 36.7114 30.3044 35.2369 31.2194 34.3213L49.954 15.575Z" fill="#01D971"/>
<path d="M32.3495 33.1121C31.5902 32.7593 30.0328 33.9591 29.5321 34.4574L34.3451 39.0011C34.8209 38.7221 36.0954 37.6678 35.922 36.8487C35.7052 35.8248 33.2987 33.553 32.3495 33.1121Z" fill="white"/>
<path d="M22.6209 46.5374C22.9405 46.623 25.801 43.6207 29.66 43.2843C34.5586 42.8573 37.1736 35.7042 30.6942 34.3105C25.798 33.2573 22.3012 46.4517 22.6209 46.5374Z" fill="#2F2F2F"/>
<circle cx="50" cy="48.5" r="10.5" fill="#01D971"/>
<circle cx="48" cy="46.5" r="7.5" fill="#02FE84"/>
<circle cx="30.5" cy="10" r="4" fill="white"/>
<path fill-rule="evenodd" clip-rule="evenodd" d="M3.5 44.1445V40.102C5.24139 39.829 7.08427 39.3637 8.89105 38.6375C13.2442 36.8879 17.3204 33.6613 19.3999 27.9619C19.585 27.4544 19.7499 26.9684 19.8959 26.5033C19.0466 26.5256 18.2334 26.508 17.4651 26.4516C15.0144 26.2717 12.6541 25.6709 11.1281 24.3414C10.3141 23.6322 9.70162 22.678 9.54575 21.4972C9.39323 20.3419 9.70995 19.2135 10.2829 18.1842C11.365 16.2405 13.079 14.7804 14.9432 13.9781C16.7894 13.1834 18.9791 12.9599 20.9213 13.8252C22.9569 14.732 24.3185 16.6534 24.7308 19.307C24.8544 20.1025 24.8953 20.9687 24.8484 21.9075C27.8019 21.3141 31.0027 20.27 34.1022 18.7128C38.4935 16.5066 41.4706 14.6753 43.5 13.2073V18.0354C41.5106 19.3033 39.0224 20.7173 35.8979 22.2871C31.9979 24.2465 27.9087 25.4953 24.1719 26.0937C23.9107 27.1129 23.5737 28.1923 23.1576 29.3329C20.6118 36.3102 15.5603 40.268 10.3828 42.3489C8.06197 43.2817 5.70257 43.8449 3.5 44.1445ZM20.7783 19.9212C20.8838 20.6002 20.9036 21.4399 20.7935 22.4582C19.7021 22.5303 18.682 22.5302 17.7579 22.4624C15.5776 22.3023 14.2909 21.7917 13.7558 21.3255C13.5393 21.1369 13.5177 21.0221 13.5113 20.9737C13.5016 20.9 13.4944 20.6391 13.7779 20.1298C14.4089 18.9962 15.4301 18.1233 16.5246 17.6522C17.637 17.1734 18.6292 17.1831 19.2935 17.479C19.8644 17.7333 20.5338 18.3481 20.7783 19.9212Z" fill="white"/>
</svg>
