<svg width="71" height="65" viewBox="0 0 71 65" fill="none" xmlns="http://www.w3.org/2000/svg">
<rect x="6" y="2" width="40" height="57" rx="3" fill="#01D971"/>
<rect x="3" y="2" width="40" height="57" rx="3" fill="#02FE84"/>
<rect x="14" y="44" width="16" height="5" rx="2" fill="white"/>
<path d="M49.4531 15.575C50.857 14.1702 53.148 14.2162 54.4944 15.6762C55.8408 17.1363 55.7014 19.4235 54.1876 20.7092L33.9876 37.8664C33.001 38.7044 31.529 38.6146 30.6515 37.663C29.7739 36.7114 29.8035 35.2369 30.7186 34.3213L49.4531 15.575Z" fill="#01D971"/>
<path d="M31.8486 33.1121C31.0892 32.7594 29.5318 33.9591 29.0311 34.4574L33.8441 39.0011C34.3199 38.7221 35.5944 37.6678 35.421 36.8487C35.2042 35.8249 32.7977 33.553 31.8486 33.1121Z" fill="white"/>
<path d="M22.1215 46.5374C22.4412 46.623 25.3016 43.6207 29.1606 43.2843C34.0592 42.8573 36.6742 35.7042 30.1948 34.3105C25.2986 33.2573 21.8018 46.4517 22.1215 46.5374Z" fill="#2F2F2F"/>
<circle cx="49.5" cy="48.5" r="10.5" fill="#01D971"/>
<circle cx="47.5" cy="46.5" r="7.5" fill="#02FE84"/>
<circle cx="30" cy="10" r="4" fill="white"/>
<path fill-rule="evenodd" clip-rule="evenodd" d="M3 44.1445V40.102C4.74139 39.829 6.58427 39.3637 8.39105 38.6375C12.7442 36.8879 16.8204 33.6613 18.8999 27.9619C19.085 27.4544 19.2499 26.9684 19.3959 26.5033C18.5466 26.5256 17.7334 26.508 16.9651 26.4516C14.5144 26.2717 12.1541 25.6709 10.6281 24.3414C9.81411 23.6322 9.20162 22.678 9.04575 21.4972C8.89323 20.3419 9.20995 19.2135 9.78294 18.1842C10.865 16.2405 12.579 14.7804 14.4432 13.9781C16.2894 13.1834 18.4791 12.9599 20.4213 13.8252C22.4569 14.732 23.8185 16.6534 24.2308 19.307C24.3544 20.1025 24.3953 20.9687 24.3484 21.9075C27.3019 21.3141 30.5027 20.27 33.6022 18.7128C37.9935 16.5066 40.9706 14.6753 43 13.2073V18.0354C41.0106 19.3033 38.5224 20.7173 35.3979 22.2871C31.4979 24.2465 27.4087 25.4953 23.6719 26.0937C23.4107 27.1129 23.0737 28.1923 22.6576 29.3329C20.1118 36.3102 15.0603 40.268 9.88276 42.3489C7.56197 43.2817 5.20257 43.8449 3 44.1445ZM20.2783 19.9212C20.3838 20.6002 20.4036 21.4399 20.2935 22.4582C19.2021 22.5303 18.182 22.5302 17.2579 22.4624C15.0776 22.3023 13.7909 21.7917 13.2558 21.3255C13.0393 21.1369 13.0177 21.0221 13.0113 20.9737C13.0016 20.9 12.9944 20.6391 13.2779 20.1298C13.9089 18.9962 14.9301 18.1233 16.0246 17.6522C17.137 17.1734 18.1292 17.1831 18.7935 17.479C19.3644 17.7333 20.0338 18.3481 20.2783 19.9212Z" fill="white"/>
</svg>
