<svg width="66" height="66" viewBox="0 0 66 66" fill="none" xmlns="http://www.w3.org/2000/svg">
<path d="M34.0107 8.54261C35.2841 8.19535 36.6435 8.37125 37.7866 9.0312L58.1152 20.7679C59.9716 21.8397 61.1152 23.8205 61.1152 25.9641V48.0359C61.1152 50.1795 59.9716 52.1603 58.1152 53.2321L37.9592 64.8691C36.6968 65.598 35.2121 65.8423 33.7826 65.5565L33.5049 65.5009C30.6196 64.9239 28.5786 62.3398 28.6855 59.3994L30.3678 13.1365C30.4464 10.9732 31.9222 9.11215 34.0107 8.54261Z" fill="#01D971"/>
<path d="M30 1.73205C31.8564 0.660254 34.1436 0.660254 36 1.73205L58.5788 14.7679C60.4352 15.8397 61.5788 17.8205 61.5788 19.9641V46.0359C61.5788 48.1795 60.4352 50.1603 58.5788 51.2321L36 64.268C34.1436 65.3397 31.8564 65.3397 30 64.268L7.42116 51.2321C5.56476 50.1603 4.42116 48.1795 4.42116 46.0359V19.9641C4.42116 17.8205 5.56475 15.8397 7.42116 14.7679L30 1.73205Z" fill="#02FE84"/>
<path d="M31.5 14.3301C32.4282 13.7942 33.5718 13.7942 34.5 14.3301L48.4186 22.366C49.3468 22.9019 49.9186 23.8923 49.9186 24.9641V41.0359C49.9186 42.1077 49.3468 43.0981 48.4186 43.634L34.5 51.6699C33.5718 52.2058 32.4282 52.2058 31.5 51.6699L17.5814 43.634C16.6532 43.0981 16.0814 42.1077 16.0814 41.0359V24.9641C16.0814 23.8923 16.6532 22.9019 17.5814 22.366L31.5 14.3301Z" stroke="white" stroke-width="6"/>
<path d="M30.4019 28.5C32.0096 27.5718 33.9904 27.5718 35.5981 28.5C37.2058 29.4282 38.1962 31.1436 38.1962 33C38.1962 34.8564 37.2058 36.5718 35.5981 37.5C33.9904 38.4282 32.0096 38.4282 30.4019 37.5C28.7942 36.5718 27.8038 34.8564 27.8038 33C27.8038 31.1436 28.7942 29.4282 30.4019 28.5Z" fill="#2F2F2F"/>
</svg>
