<svg width="29" height="33" viewBox="0 0 29 33" fill="none" xmlns="http://www.w3.org/2000/svg">
<path d="M29 5.58193C20.2685 18.2343 23.6987 27.5995 26.5053 30.7006C15.2788 21.7695 19.3331 6.51225 22.7635 0C26.0066 1.24043 28.2725 4.23813 29 5.58193Z" fill="#02FD83"/>
<path d="M18.398 8.683C16.4023 22.8239 22.7638 29.8736 26.194 31.6309C12.4726 28.4058 9.45884 12.7144 9.66714 5.27182C14.6566 5.76799 17.5667 7.75268 18.398 8.683Z" fill="#02FD83"/>
<path d="M9.04334 14.8851C12.2865 27.2894 21.8284 31.8377 26.194 32.5612C11.9738 35.5383 2.80623 22.6378 0 15.8155C4.73996 14.0789 8.00388 14.4717 9.04334 14.8851Z" fill="#02FD83"/>
</svg>
